<?xml version="1.0" encoding="iso-8859-1"?>
<!-- Generator: Adobe Illustrator 19.0.0, SVG Export Plug-In . SVG Version: 6.00 Build 0)  -->
<svg xmlns="http://www.w3.org/2000/svg" xmlns:xlink="http://www.w3.org/1999/xlink" version="1.1" id="Layer_1" x="0px" y="0px" viewBox="0 0 506.878 506.878" style="enable-background:new 0 0 506.878 506.878;" xml:space="preserve" width="512" height="512">
<path d="M492.935,407.365L392.409,285.857c-0.001-0.002-0.003-0.004-0.004-0.006l-93.18-112.628  c-9.716-11.745-23.381-19.176-38.286-21.057v-48.73H368.5c2.729,0,5.242-1.482,6.563-3.87c1.321-2.388,1.241-5.304-0.209-7.616  l-25.028-39.891l25.028-39.891c1.45-2.312,1.53-5.228,0.209-7.616c-1.32-2.388-3.834-3.87-6.563-3.87h-60.157  c-4.143,0-7.5,3.358-7.5,7.5s3.357,7.5,7.5,7.5h46.598l-20.322,32.391c-1.528,2.437-1.528,5.535,0,7.972l20.322,32.391h-94.001  V15.682h17.401c4.143,0,7.5-3.358,7.5-7.5s-3.357-7.5-7.5-7.5h-24.901c-4.143,0-7.5,3.358-7.5,7.5v87.754v56.23  c-14.906,1.881-28.571,9.312-38.287,21.057L13.942,407.365c-15.062,18.204-18.168,42.793-8.108,64.172  c10.059,21.378,30.985,34.659,54.612,34.659H368.5c4.143,0,7.5-3.358,7.5-7.5s-3.357-7.5-7.5-7.5H60.446  c-17.755,0-33.48-9.98-41.04-26.046c-7.56-16.065-5.225-34.543,6.093-48.224l86.385-104.417c0.439,0.802,0.91,1.593,1.448,2.359  c6.283,8.938,17.407,12.459,27.689,8.757l65.413-23.552l13.041,26.118c6.469,12.955,19.483,21.003,33.963,21.003  c14.48,0,27.495-8.048,33.964-21.003l13.042-26.118l65.412,23.552c10.285,3.702,21.408,0.181,27.69-8.757  c0.538-0.765,1.008-1.557,1.447-2.358l86.385,104.416c11.317,13.68,13.652,32.159,6.093,48.224  c-7.559,16.065-23.285,26.045-41.04,26.045h-47.93c-4.143,0-7.5,3.358-7.5,7.5s3.357,7.5,7.5,7.5h47.93  c23.627,0,44.554-13.281,54.613-34.659S507.997,425.57,492.935,407.365z M381.274,306.244c-1.896,2.696-5.606,4.971-10.336,3.269  l-71.685-25.811c-3.578-1.286-7.552,0.305-9.251,3.706l-16.021,32.082c-3.972,7.955-11.652,12.704-20.544,12.704  c-8.891,0-16.571-4.749-20.543-12.704l-16.02-32.082c-1.699-3.402-5.677-4.993-9.251-3.706l-71.686,25.811  c-4.728,1.706-8.438-0.571-10.335-3.269c-1.895-2.697-2.778-6.958,0.426-10.832l93.179-112.628  c8.395-10.147,20.73-15.996,33.886-16.097c0.115,0.005,0.573,0.005,0.688,0c13.155,0.101,25.49,5.95,33.885,16.097l93.184,112.634  C384.051,299.29,383.168,303.549,381.274,306.244z"/>















</svg>
